<svg width="25" height="24" viewBox="0 0 25 24" fill="none" xmlns="http://www.w3.org/2000/svg">
<path d="M22.5715 12.0801C22.5598 14.5353 21.6453 16.9005 20.0022 18.7249C18.359 20.5493 16.1021 21.7055 13.6615 21.9731V14.8001H16.0115C16.1149 14.8006 16.2149 14.7633 16.2927 14.6951C16.3704 14.627 16.4205 14.5327 16.4335 14.4301L16.6875 12.2281C16.6967 12.1703 16.6931 12.1111 16.677 12.0548C16.661 11.9985 16.6328 11.9464 16.5946 11.9021C16.5563 11.8579 16.5088 11.8225 16.4554 11.7984C16.402 11.7744 16.344 11.7624 16.2855 11.7631H13.6615V9.96308C13.6615 9.12708 13.8945 8.55608 15.0895 8.55608H16.2015C16.3119 8.55321 16.4169 8.50724 16.4938 8.428C16.5708 8.34877 16.6138 8.24256 16.6135 8.13208V6.23808C16.6109 6.12763 16.5651 6.02259 16.4861 5.94542C16.4071 5.86824 16.3009 5.82505 16.1905 5.82508H14.3915C13.8861 5.78895 13.379 5.86352 12.9055 6.04359C12.432 6.22367 12.0034 6.5049 11.6498 6.86768C11.2961 7.23045 11.0259 7.66602 10.858 8.144C10.6901 8.62197 10.6285 9.13084 10.6775 9.63508V11.7511H8.91047C8.8553 11.7511 8.80068 11.7621 8.74984 11.7835C8.699 11.805 8.65298 11.8364 8.61448 11.8759C8.57598 11.9154 8.54579 11.9623 8.5257 12.0136C8.5056 12.065 8.496 12.1199 8.49747 12.1751V14.3751C8.49747 14.4846 8.54098 14.5897 8.61844 14.6671C8.69589 14.7446 8.80094 14.7881 8.91047 14.7881H10.6775V21.8251C8.40844 21.3875 6.361 20.1775 4.88323 18.401C3.40546 16.6244 2.58858 14.3909 2.57147 12.0801C2.57147 9.42791 3.62504 6.88437 5.5004 5.00901C7.37577 3.13365 9.91931 2.08008 12.5715 2.08008C15.2236 2.08008 17.7672 3.13365 19.6425 5.00901C21.5179 6.88437 22.5715 9.42791 22.5715 12.0801Z" fill="black"/>
</svg>
