<svg width="22" height="22" viewBox="0 0 22 22" fill="none" xmlns="http://www.w3.org/2000/svg">
<g clip-path="url(#clip0_1_33)">
<mask id="mask0_1_33" style="mask-type:luminance" maskUnits="userSpaceOnUse" x="0" y="0" width="22" height="22">
<path d="M0.571411 0.714233H21.1428V21.2857H0.571411V0.714233Z" fill="white"/>
</mask>
<g mask="url(#mask0_1_33)">
<path fill-rule="evenodd" clip-rule="evenodd" d="M21.1428 10.9999C21.1428 16.6802 16.5374 21.2857 10.8571 21.2857C5.17684 21.2857 0.571411 16.6802 0.571411 10.9999C0.571411 5.31966 5.17684 0.714233 10.8571 0.714233C16.5374 0.714233 21.1428 5.31966 21.1428 10.9999ZM11.2257 8.30766C10.2257 8.72366 8.22627 9.5848 5.22741 10.8911C4.74055 11.0848 4.48541 11.2742 4.46198 11.4594C4.42255 11.7731 4.81513 11.8965 5.34827 12.0637L5.5737 12.1357C6.09913 12.3062 6.80541 12.5059 7.17227 12.5137C7.50541 12.5205 7.87741 12.3834 8.28827 12.1022C11.0894 10.2108 12.5354 9.2548 12.6263 9.23423C12.6906 9.21966 12.7797 9.2008 12.8397 9.2548C12.8997 9.30795 12.8937 9.40909 12.8877 9.43652C12.8483 9.60195 11.3106 11.0325 10.5134 11.7731C10.2648 12.0037 10.0891 12.1674 10.0531 12.2051C9.97141 12.2879 9.89084 12.3677 9.81141 12.4442C9.32284 12.9139 8.9577 13.2671 9.83198 13.8431C10.252 14.1199 10.588 14.3488 10.9231 14.5768C11.2891 14.8262 11.6543 15.0748 12.1274 15.3851C12.2474 15.4651 12.3631 15.5451 12.4746 15.6251C12.9006 15.9294 13.2837 16.2019 13.7568 16.1591C14.0311 16.1334 14.3157 15.8754 14.4597 15.1048C14.8 13.2825 15.4703 9.33623 15.6254 7.70938C15.6357 7.57432 15.6299 7.43851 15.6083 7.3048C15.5963 7.19659 15.5436 7.09699 15.4608 7.02623C15.3383 6.92595 15.148 6.90452 15.0623 6.90623C14.6757 6.91309 14.0826 7.11966 11.2257 8.30766Z" fill="black"/>
</g>
</g>
<defs>
<clipPath id="clip0_1_33">
<rect width="20.5714" height="20.5714" fill="white" transform="translate(0.571411 0.714233)"/>
</clipPath>
</defs>
</svg>
