<svg width="21" height="22" viewBox="0 0 21 22" fill="none" xmlns="http://www.w3.org/2000/svg">
<g clip-path="url(#clip0_1_29)">
<path d="M11.9345 10.8282L9.62435 9.7503C9.42275 9.6567 9.25715 9.76162 9.25715 9.98482V12.0152C9.25715 12.2384 9.42275 12.3433 9.62435 12.2497L11.9335 11.1718C12.1361 11.0772 12.1361 10.9229 11.9345 10.8282ZM10.2857 1.12573C4.83224 1.12573 0.411438 5.54653 0.411438 11C0.411438 16.4535 4.83224 20.8743 10.2857 20.8743C15.7392 20.8743 20.16 16.4535 20.16 11C20.16 5.54653 15.7392 1.12573 10.2857 1.12573ZM10.2857 15.0114C5.23132 15.0114 5.14287 14.5558 5.14287 11C5.14287 7.44425 5.23132 6.98859 10.2857 6.98859C15.3401 6.98859 15.4286 7.44425 15.4286 11C15.4286 14.5558 15.3401 15.0114 10.2857 15.0114Z" fill="black"/>
</g>
<defs>
<clipPath id="clip0_1_29">
<rect width="20.5714" height="20.5714" fill="white" transform="translate(0 0.714233)"/>
</clipPath>
</defs>
</svg>
